Coordinates
version=1
nRows=32
nColumns=12
inDegrees=yes

Units are S.I. units (second, meters, Newtons, ...)
Angles are in degrees

endheader
time	SC_y	SC_z	SC_x	AC_y	AC_z	AC_x	GH_y	GH_z	GH_yy	EL_x	PS_y
       0.0              -12.25          31.19          78.67          55.72          3.624         -11.33         -67.84          8.818          131.5          130.1          96.44
   0.03858              -12.25          31.19          78.66          55.72           3.62         -11.33         -67.82          8.823          131.5          130.1          96.44
   0.07715              -12.25          31.19          78.65          55.72          3.617         -11.33          -67.8          8.829          131.5          130.1          96.44
    0.1157              -12.25          31.19          78.64          55.72          3.613         -11.33         -67.79          8.834          131.4          130.1          96.44
    0.1543              -12.26          31.19          78.63          55.72          3.609         -11.33         -67.77           8.84          131.4          130.0          96.44
    0.1929              -12.26          31.19          78.62          55.72          3.604         -11.32         -67.75          8.847          131.3          130.0          96.44
    0.2315              -12.26          31.19          78.61          55.72            3.6         -11.32         -67.73          8.854          131.3          130.0          96.44
      0.27              -12.26          31.19           78.6          55.73          3.595         -11.32          -67.7          8.861          131.2          130.0          96.44
    0.3086              -12.26          31.19          78.58          55.73          3.589         -11.32         -67.68          8.869          131.2          130.0          96.44
    0.3472              -12.27          31.19          78.57          55.73          3.584         -11.32         -67.65          8.878          131.1          130.0          96.44
    0.3858              -12.27          31.19          78.56          55.73          3.577         -11.31         -67.62          8.887          131.1          130.0          96.44
    0.4243              -12.27          31.19          78.54          55.73          3.571         -11.31         -67.59          8.897          131.0          129.9          96.44
    0.4629              -12.28          31.19          78.52          55.73          3.564         -11.31         -67.56          8.908          131.0          129.9          96.44
    0.5015              -12.28          31.18           78.5          55.73          3.556          -11.3         -67.52          8.919          130.9          129.9          96.44
    0.5401              -12.29          31.18          78.48          55.73          3.547          -11.3         -67.48          8.931          130.8          129.9          96.44
    0.5786              -12.29          31.18          78.46          55.74          3.538          -11.3         -67.44          8.945          130.7          129.8          96.44
    0.6172               -12.3          31.18          78.44          55.74          3.529         -11.29         -67.39           8.96          130.6          129.8          96.44
    0.6558               -12.3          31.18          78.41          55.74          3.518         -11.29         -67.34          8.976          130.5          129.8          96.44
    0.6944              -12.31          31.18          78.38          55.74          3.506         -11.28         -67.29          8.993          130.4          129.7          96.44
    0.7329              -12.31          31.18          78.35          55.74          3.493         -11.28         -67.23          9.012          130.3          129.7          96.44
    0.7715              -12.32          31.17          78.32          55.75          3.479         -11.27         -67.16          9.033          130.2          129.7          96.44
    0.8101              -12.33          31.17          78.28          55.75          3.463         -11.26         -67.09          9.056          130.0          129.6          96.44
    0.8487              -12.34          31.17          78.24          55.75          3.446         -11.26         -67.01          9.082          129.9          129.6          96.44
    0.8872              -12.35          31.17          78.19          55.76          3.427         -11.25         -66.92           9.11          129.7          129.5          96.44
    0.9258              -12.36          31.16          78.14          55.76          3.406         -11.24         -66.83          9.141          129.5          129.5          96.44
    0.9644              -12.37          31.16          78.08          55.77          3.382         -11.23         -66.72          9.176          129.3          129.4          96.44
     1.003              -12.38          31.16          78.02          55.77          3.356         -11.22         -66.59          9.215          129.0          129.3          96.44
     1.042               -12.4          31.15          77.95          55.78          3.326          -11.2         -66.46           9.26          128.8          129.2          96.44
      1.08              -12.41          31.15          77.87          55.78          3.293         -11.19          -66.3          9.309          128.4          129.1          96.44
     1.119              -12.43          31.14          77.78          55.79          3.254         -11.17         -66.12          9.366          128.1          129.0          96.44
     1.157              -12.45          31.14          77.67           55.8          3.211         -11.15         -65.92          9.431          127.7          128.9          96.44
     1.196              -12.48          31.13          77.55          55.81          3.161         -11.13         -65.69          9.505          127.2          128.7          96.43
